<svg id="电能表" xmlns="http://www.w3.org/2000/svg" xmlns:xlink="http://www.w3.org/1999/xlink" width="41" height="40.5" viewBox="0 0 41 40.5">
  <metadata><?xpacket begin="﻿" id="W5M0MpCehiHzreSzNTczkc9d"?>
<x:xmpmeta xmlns:x="adobe:ns:meta/" x:xmptk="Adobe XMP Core 5.6-c138 79.159824, 2016/09/14-01:09:01        ">
   <rdf:RDF xmlns:rdf="http://www.w3.org/1999/02/22-rdf-syntax-ns#">
      <rdf:Description rdf:about=""/>
   </rdf:RDF>
</x:xmpmeta>
                                                                                                    
                                                                                                    
                                                                                                    
                                                                                                    
                                                                                                    
                                                                                                    
                                                                                                    
                                                                                                    
                                                                                                    
                                                                                                    
                                                                                                    
                                                                                                    
                                                                                                    
                                                                                                    
                                                                                                    
                                                                                                    
                                                                                                    
                                                                                                    
                                                                                                    
                                                                                                    
                           
<?xpacket end="w"?></metadata>
<defs>
    <style>
      .cls-1 {
        fill: #f9d644;
      }

      .cls-2 {
        fill: #59b8f0;
      }

      .cls-3 {
        fill: #ef603e;
      }

      .cls-4 {
        fill: #243a51;
      }

      .cls-4, .cls-5 {
        stroke: #002340;
      }

      .cls-10, .cls-11, .cls-4, .cls-5, .cls-6, .cls-7, .cls-8 {
        stroke-width: 1px;
      }

      .cls-5 {
        fill: #002340;
      }

      .cls-6 {
        fill: #28465e;
      }

      .cls-6, .cls-7, .cls-8 {
        stroke: #07355b;
      }

      .cls-10, .cls-11, .cls-7 {
        fill: #fff;
      }

      .cls-7, .cls-8 {
        fill-rule: evenodd;
      }

      .cls-7 {
        filter: url(#filter);
      }

      .cls-8 {
        fill: #627586;
      }

      .cls-9 {
        fill: #a6b2c0;
      }

      .cls-10 {
        stroke: #ccc;
      }

      .cls-11 {
        stroke: #f60;
      }
    </style>
    <filter id="filter" x="574" y="169" width="32" height="11" filterUnits="userSpaceOnUse">
      <feGaussianBlur result="blur" stdDeviation="1.333" in="SourceAlpha"/>
      <feFlood result="flood" flood-color="#d8d8d8"/>
      <feComposite result="composite-2" operator="out" in2="blur"/>
      <feComposite result="composite" operator="in" in2="SourceAlpha"/>
      <feBlend result="blend" in2="SourceGraphic"/>
    </filter>
  </defs>
  <path id="圆角矩形_4" data-name="圆角矩形 4" class="cls-1" d="M10.5,26.5h4a0,0,0,0,1,0,0v13a1,1,0,0,1-1,1h-2a1,1,0,0,1-1-1v-13A0,0,0,0,1,10.5,26.5Z"/>
  <path id="圆角矩形_4_拷贝" data-name="圆角矩形 4 拷贝" class="cls-2" d="M18.5,26.5h4a0,0,0,0,1,0,0v13a1,1,0,0,1-1,1h-2a1,1,0,0,1-1-1v-13A0,0,0,0,1,18.5,26.5Z"/>
  <path id="圆角矩形_4_拷贝_2" data-name="圆角矩形 4 拷贝 2" class="cls-3" d="M26.5,26.5h4a0,0,0,0,1,0,0v13a1,1,0,0,1-1,1h-2a1,1,0,0,1-1-1v-13A0,0,0,0,1,26.5,26.5Z"/>
  <path id="圆角矩形_3" data-name="圆角矩形 3" class="cls-4" d="M4.5,27.5h32a0,0,0,0,1,0,0v7a2,2,0,0,1-2,2H6.5a2,2,0,0,1-2-2v-7A0,0,0,0,1,4.5,27.5Z"/>
  <rect id="矩形_4" data-name="矩形 4" class="cls-5" x="5.5" y="26.5" width="30" height="4"/>
  <rect id="圆角矩形_1" data-name="圆角矩形 1" class="cls-6" x="0.5" y="0.5" width="40" height="28" rx="2" ry="2"/>
  <g transform="translate(-569.5 -165.5)" style="fill: #fff; filter: url(#filter)">
    <path id="圆角矩形_2" data-name="圆角矩形 2" class="cls-7" d="M576,170h28a1,1,0,0,1,1,1v7a1,1,0,0,1-1,1H576a1,1,0,0,1-1-1v-7A1,1,0,0,1,576,170Z" style="stroke: inherit; filter: none; fill: inherit"/>
  </g>
  <use transform="translate(-569.5 -165.5)" xlink:href="#圆角矩形_2" style="stroke: #07355b; filter: none; fill: none"/>
  <path id="矩形_1" data-name="矩形 1" class="cls-8" d="M577,184h26v2H577v-2Z" transform="translate(-569.5 -165.5)"/>
  <rect id="矩形_2" data-name="矩形 2" class="cls-9" x="7.5" y="18.5" width="26" height="1"/>
  <rect id="矩形_3" data-name="矩形 3" class="cls-10" x="6.5" y="6.5" width="4" height="5"/>
  <rect id="矩形_3_拷贝" data-name="矩形 3 拷贝" class="cls-10" x="10.5" y="6.5" width="4" height="5"/>
  <rect id="矩形_3_拷贝_2" data-name="矩形 3 拷贝 2" class="cls-10" x="14.5" y="6.5" width="4" height="5"/>
  <rect id="矩形_3_拷贝_3" data-name="矩形 3 拷贝 3" class="cls-10" x="18.5" y="6.5" width="4" height="5"/>
  <rect id="矩形_3_拷贝_4" data-name="矩形 3 拷贝 4" class="cls-11" x="24.5" y="6.5" width="4" height="5"/>
  <rect id="矩形_3_拷贝_5" data-name="矩形 3 拷贝 5" class="cls-11" x="29.5" y="6.5" width="4" height="5"/>
</svg>
