<?xml version="1.0" encoding="UTF-8"?>
<svg width="36px" height="32px" viewBox="0 0 36 32" version="1.1" xmlns="http://www.w3.org/2000/svg" xmlns:xlink="http://www.w3.org/1999/xlink">
    <!-- Generator: Sketch 47.1 (45422) - http://www.bohemiancoding.com/sketch -->
    <title>factory</title>
    <desc>Created with Sketch.</desc>
    <defs></defs>
    <g id="Page-1" stroke="none" stroke-width="1" fill="none" fill-rule="evenodd">
        <g id="我的企业" transform="translate(-156.000000, -919.000000)">
            <g id="Group-10" transform="translate(1.000000, 719.000000)">
                <g id="Group-8" transform="translate(0.000000, 48.000000)">
                    <g id="Group-21" transform="translate(114.000000, 20.000000)">
                        <g id="Group-15" transform="translate(0.000000, 132.000000)">
                            <g id="factory" transform="translate(41.000000, 0.000000)">
                                <rect id="Rectangle-path" fill="#A4A9AD" x="24.0893437" y="24.2643226" width="7.76123438" height="6.21367742"></rect>
                                <rect id="Rectangle-path" fill="#000000" opacity="0.1" x="24.8105391" y="26.2770323" width="3.32796094" height="1.46954839"></rect>
                                <rect id="Rectangle-path" fill="#000000" opacity="0.1" x="28.5225469" y="28.2334194" width="3.32796094" height="1.46948387"></rect>
                                <rect id="Rectangle-path" fill="#000000" opacity="0.1" x="24.0893437" y="24.2643226" width="7.76123438" height="1.668"></rect>
                                <path d="M32.5399219,23.6788387 C32.5399219,23.4850323 32.3670937,23.3264516 32.155875,23.3264516 L23.7842578,23.3264516 C23.5730391,23.3264516 23.4002109,23.4850323 23.4002109,23.6788387 L23.4002109,24.8490323 C23.4002109,25.0428387 23.5730391,25.2014194 23.7842578,25.2014194 L32.155875,25.2014194 C32.3670937,25.2014194 32.5399219,25.0428387 32.5399219,24.8490323 L32.5399219,23.6788387 L32.5399219,23.6788387 Z" id="Shape" fill="#D68231"></path>
                                <path d="M27.1300078,0.00283870968 C26.2698047,0.00283870968 25.4934141,0.330387097 24.9394219,0.856322581 C24.4692422,0.583935484 23.9125078,0.425677419 23.3152734,0.425677419 C21.6325547,0.425677419 20.2684219,1.67729032 20.2684219,3.22122581 C20.2684219,3.23406452 20.2692656,3.24664516 20.2694766,3.25935484 C18.5294531,3.50245161 17.1961875,4.88109677 17.1961875,6.54548387 C17.1961875,8.38154839 18.8182266,9.86987097 20.8191094,9.86987097 C22.8199922,9.86987097 24.4420312,8.38154839 24.4420312,6.54548387 C24.4420312,6.30612903 24.4138359,6.07283871 24.3614531,5.84793548 C24.7987266,5.70122581 25.1886094,5.46470968 25.5058594,5.16341935 C25.9760391,5.43593548 26.5327734,5.59425806 27.1300078,5.59425806 C28.8127266,5.59425806 30.1768594,4.34251613 30.1768594,2.7983871 C30.1768594,1.25445161 28.8127266,0.00283870968 27.1300078,0.00283870968 L27.1300078,0.00283870968 Z" id="Shape" fill="#D1D3D3"></path>
                                <polygon id="Shape" fill="#333E48" points="24.4775391 6.54567742 17.16075 6.54567742 15.552 30.4773548 26.0863594 30.4773548"></polygon>
                                <path d="M24.8680547,12.3549677 L16.7702344,12.3549677 L16.6992188,13.4120645 L24.9391406,13.4120645 L24.8680547,12.3549677 L24.8680547,12.3549677 Z M24.7237734,10.2085161 L16.9145156,10.2085161 L16.8435,11.2656129 L24.7948594,11.2656129 L24.7237734,10.2085161 L24.7237734,10.2085161 Z" id="Shape" fill="#D68231"></path>
                                <rect id="Rectangle-path" fill="#A4A9AD" x="2.58208594" y="17.2443871" width="19.8496406" height="13.2329032"></rect>
                                <rect id="Rectangle-path" fill="#000000" opacity="0.1" x="19.1039063" y="25.6434839" width="3.32796094" height="1.46948387"></rect>
                                <rect id="Rectangle-path" fill="#000000" opacity="0.1" x="2.57224219" y="23.8605161" width="3.32796094" height="1.46954839"></rect>
                                <rect id="Rectangle-path" fill="#000000" opacity="0.1" x="13.8879844" y="18.3360645" width="3.32796094" height="1.46954839"></rect>
                                <rect id="Rectangle-path" fill="#000000" opacity="0.1" x="6.69670313" y="17.2443871" width="3.32796094" height="1.46948387"></rect>
                                <rect id="Rectangle-path" fill="#000000" opacity="0.1" x="5.42939063" y="27.7464516" width="3.32796094" height="1.46948387"></rect>
                                <path d="M20.4623437,21.6025161 C20.4623437,21.2149032 20.1166875,20.8978065 19.6943203,20.8978065 L5.31942187,20.8978065 C4.89698437,20.8978065 4.55139844,21.2149677 4.55139844,21.6025161 L4.55139844,22.8966452 C4.55139844,23.2842581 4.89705469,23.6013548 5.31942187,23.6013548 L19.6943203,23.6013548 C20.1167578,23.6013548 20.4623437,23.2841935 20.4623437,22.8966452 L20.4623437,21.6025161 L20.4623437,21.6025161 Z" id="Shape" fill="#000000" opacity="0.1"></path>
                                <path d="M20.4623437,20.5101935 C20.4623437,20.1225806 20.1166875,19.8054839 19.6943203,19.8054839 L5.31942187,19.8054839 C4.89698437,19.8054839 4.55139844,20.1226452 4.55139844,20.5101935 L4.55139844,21.8043226 C4.55139844,22.1919355 4.89705469,22.5090323 5.31942187,22.5090323 L19.6943203,22.5090323 C20.1167578,22.5090323 20.4623437,22.191871 20.4623437,21.8043226 L20.4623437,20.5101935 L20.4623437,20.5101935 Z" id="Shape" fill="#FFFFFF"></path>
                                <path d="M19.6943203,19.8054194 L5.31942187,19.8054194 C4.89698437,19.8054194 4.55139844,20.1225806 4.55139844,20.510129 L4.55139844,21.4086452 C4.55139844,21.0210323 4.89705469,20.7039355 5.31942187,20.7039355 L19.6943203,20.7039355 C20.1167578,20.7039355 20.4623437,21.0210968 20.4623437,21.4086452 L20.4623437,20.510129 C20.4623437,20.1225806 20.1167578,19.8054194 19.6943203,19.8054194 L19.6943203,19.8054194 Z" id="Shape" fill="#000000" opacity="0.1"></path>
                                <path d="M2.58208594,14.4930323 L2.58208594,17.2443871 L5.89035937,17.2443871 C5.89035937,17.2443871 2.97857812,14.5725806 2.88520312,14.4869677 C2.76532031,14.3769677 2.58208594,14.3183226 2.58208594,14.4930323 L2.58208594,14.4930323 Z" id="Shape" fill="#D1D3D3"></path>
                                <path d="M5.89028906,14.4930323 L5.89028906,17.2443871 L9.1985625,17.2443871 C9.1985625,17.2443871 6.28678125,14.5725806 6.19340625,14.4869677 C6.07359375,14.3769677 5.89028906,14.3183226 5.89028906,14.4930323 L5.89028906,14.4930323 Z" id="Shape" fill="#D1D3D3"></path>
                                <path d="M9.1985625,14.4930323 L9.1985625,17.2443871 L12.5068359,17.2443871 C12.5068359,17.2443871 9.59505469,14.5725806 9.50167969,14.4869677 C9.38179688,14.3769677 9.1985625,14.3183226 9.1985625,14.4930323 L9.1985625,14.4930323 Z" id="Shape" fill="#D1D3D3"></path>
                                <path d="M12.5068359,14.4930323 L12.5068359,17.2443871 L15.8151094,17.2443871 C15.8151094,17.2443871 12.9033281,14.5725806 12.8099531,14.4869677 C12.6901406,14.3769677 12.5068359,14.3183226 12.5068359,14.4930323 L12.5068359,14.4930323 Z" id="Shape" fill="#D1D3D3"></path>
                                <path d="M15.8151797,14.4930323 L15.8151797,17.2443871 L19.1234531,17.2443871 C19.1234531,17.2443871 16.2116719,14.5725806 16.1182969,14.4869677 C15.9984141,14.3769677 15.8151797,14.3183226 15.8151797,14.4930323 L15.8151797,14.4930323 Z" id="Shape" fill="#D1D3D3"></path>
                                <path d="M19.1233828,14.4930323 L19.1233828,17.2443871 L22.4316562,17.2443871 C22.4316562,17.2443871 19.519875,14.5725806 19.4265,14.4869677 C19.3066875,14.3769677 19.1233828,14.3183226 19.1233828,14.4930323 L19.1233828,14.4930323 Z" id="Shape" fill="#D1D3D3"></path>
                                <rect id="Rectangle-path" fill="#D1D3D3" x="7.9048125" y="25.0155484" width="9.20439844" height="5.46174194"></rect>
                                <rect id="Rectangle-path" fill="#000000" x="7.9048125" y="26.1431613" width="9.20439844" height="1.05709677"></rect>
                                <rect id="Rectangle-path" fill="#000000" x="7.9048125" y="28.1516774" width="9.20439844" height="1.05709677"></rect>
                                <rect id="Rectangle-path" fill="#A4A9AD" x="7.785" y="19.8054194" width="1.15207031" height="2.70335484"></rect>
                                <rect id="Rectangle-path" fill="#A4A9AD" x="11.9309766" y="19.8054194" width="1.15207031" height="2.70335484"></rect>
                                <rect id="Rectangle-path" fill="#A4A9AD" x="16.0769531" y="19.8054194" width="1.15207031" height="2.70335484"></rect>
                                <path d="M19.6943203,23.0375484 L5.31942188,23.0375484 C4.57832813,23.0375484 3.97532813,22.4842581 3.97532813,21.8042581 L3.97532813,20.510129 C3.97532813,19.830129 4.57832813,19.2768387 5.31942188,19.2768387 L19.6943203,19.2768387 C20.4354141,19.2768387 21.0384141,19.830129 21.0384141,20.510129 L21.0384141,21.8042581 C21.0384141,22.4842581 20.4354141,23.0375484 19.6943203,23.0375484 L19.6943203,23.0375484 Z M5.31942188,20.334 C5.21535938,20.334 5.12739844,20.4147097 5.12739844,20.5101935 L5.12739844,21.8043226 C5.12739844,21.8998065 5.21535938,21.9805161 5.31942188,21.9805161 L19.6943203,21.9805161 C19.7983828,21.9805161 19.8863438,21.8998065 19.8863438,21.8043226 L19.8863438,20.5101935 C19.8863438,20.4147097 19.7983828,20.334 19.6943203,20.334 L5.31942188,20.334 L5.31942188,20.334 Z" id="Shape" fill="#D68231"></path>
                                <path d="M36,31.5834839 C36,31.74 35.8605,31.868129 35.6897813,31.868129 L0.31021875,31.868129 C0.139570312,31.868129 0,31.74 0,31.5834839 L0,30.5646452 C0,30.408 0.139570313,30.279871 0.31021875,30.279871 L35.6897812,30.279871 C35.8605,30.279871 36,30.408 36,30.5646452 L36,31.5834839 L36,31.5834839 Z" id="Shape" fill="#333E48"></path>
                            </g>
                        </g>
                    </g>
                </g>
            </g>
        </g>
    </g>
</svg>